<svg width="116" height="25" viewBox="0 0 116 25" fill="none" xmlns="http://www.w3.org/2000/svg">
<path d="M33.7025 20.2019H46.0107V23.7093H29.5781V0.976438H33.7025V20.2019Z" fill="#4B418A"/>
<path d="M65.2615 20.7215C65.5863 20.7215 66.1492 20.6025 66.9502 20.3643V23.7093C66.0626 24.034 65.2182 24.1964 64.4172 24.1964C62.4903 24.1964 61.1588 23.5794 60.4227 22.3453C58.9937 23.5794 57.1859 24.1964 54.9993 24.1964C52.8559 24.1964 51.113 23.5144 49.7707 22.1505C48.4284 20.7865 47.7572 19.0112 47.7572 16.8245V7.7963H51.7192V16.5972C51.7192 17.8529 52.0873 18.8704 52.8234 19.6499C53.5595 20.4076 54.5229 20.7865 55.7137 20.7865C56.9694 20.7865 57.987 20.4293 58.7664 19.7148C59.5458 18.9787 59.9355 18.0153 59.9355 16.8245V7.7963H63.8975V19.3576C63.8975 20.2669 64.3522 20.7215 65.2615 20.7215Z" fill="#4B418A"/>
<path d="M79.0612 7.30916C81.2046 7.30916 82.9475 7.99115 84.2898 9.35512C85.6321 10.7191 86.3033 12.4944 86.3033 14.6811V23.7093H82.3413V14.9084C82.3413 13.6744 81.9732 12.6676 81.2371 11.8882C80.501 11.1088 79.5375 10.7191 78.3468 10.7191C77.0911 10.7191 76.0735 11.0871 75.2941 11.8233C74.5147 12.5594 74.125 13.512 74.125 14.6811V23.7093H70.1629V12.148C70.1629 11.2387 69.6975 10.784 68.7665 10.784C68.2469 10.784 67.7598 10.849 67.3051 10.9789V7.76382C68.0412 7.46071 68.8315 7.30916 69.6758 7.30916C71.5161 7.30916 72.7502 8.0128 73.378 9.42007C74.8286 8.0128 76.723 7.30916 79.0612 7.30916Z" fill="#4B418A"/>
<path d="M107.182 20.7215C107.637 20.7215 108.199 20.6025 108.871 20.3643V23.7093C107.94 24.034 107.095 24.1964 106.338 24.1964C104.454 24.1964 103.209 23.4928 102.603 22.0855C101.109 23.4928 99.2579 24.1964 97.0495 24.1964C94.5814 24.1964 92.5679 23.417 91.0091 21.8582C89.4503 20.2777 88.6709 18.2426 88.6709 15.7528C88.6709 13.263 89.4503 11.2387 91.0091 9.67987C92.5679 8.0994 94.5814 7.30916 97.0495 7.30916C98.8898 7.30916 100.481 7.90455 101.823 9.09531V0.326928H105.818V19.3576C105.818 20.2669 106.273 20.7215 107.182 20.7215ZM97.3093 20.9489C98.6733 20.9489 99.7666 20.4726 100.589 19.52C101.434 18.5673 101.856 17.3116 101.856 15.7528C101.856 14.194 101.434 12.9383 100.589 11.9856C99.7666 11.033 98.6733 10.5567 97.3093 10.5567C95.9021 10.5567 94.7654 11.033 93.8994 11.9856C93.055 12.9383 92.6329 14.194 92.6329 15.7528C92.6329 17.3116 93.055 18.5673 93.8994 19.52C94.7654 20.4726 95.9021 20.9489 97.3093 20.9489Z" fill="#4B418A"/>
<path d="M112.533 4.71112C111.84 4.71112 111.255 4.49462 110.779 4.06161C110.303 3.60695 110.065 3.0657 110.065 2.43784C110.065 1.80998 110.303 1.27954 110.779 0.846535C111.255 0.391879 111.84 0.164551 112.533 0.164551C113.204 0.164551 113.778 0.391879 114.254 0.846535C114.752 1.27954 115.001 1.80998 115.001 2.43784C115.001 3.0657 114.752 3.60695 114.254 4.06161C113.778 4.49462 113.204 4.71112 112.533 4.71112ZM110.552 23.7093V7.7963H114.514V23.7093H110.552Z" fill="#4B418A"/>
<path d="M33.7025 20.2019H46.0107V23.7093H29.5781V0.976438H33.7025V20.2019Z" fill="#4B418A"/>
<path d="M65.2615 20.7215C65.5863 20.7215 66.1492 20.6025 66.9502 20.3643V23.7093C66.0626 24.034 65.2182 24.1964 64.4172 24.1964C62.4903 24.1964 61.1588 23.5794 60.4227 22.3453C58.9937 23.5794 57.1859 24.1964 54.9993 24.1964C52.8559 24.1964 51.113 23.5144 49.7707 22.1505C48.4284 20.7865 47.7572 19.0112 47.7572 16.8245V7.7963H51.7192V16.5972C51.7192 17.8529 52.0873 18.8704 52.8234 19.6499C53.5595 20.4076 54.5229 20.7865 55.7137 20.7865C56.9694 20.7865 57.987 20.4293 58.7664 19.7148C59.5458 18.9787 59.9355 18.0153 59.9355 16.8245V7.7963H63.8975V19.3576C63.8975 20.2669 64.3522 20.7215 65.2615 20.7215Z" fill="#4B418A"/>
<path d="M79.0612 7.30916C81.2046 7.30916 82.9475 7.99115 84.2898 9.35512C85.6321 10.7191 86.3033 12.4944 86.3033 14.6811V23.7093H82.3413V14.9084C82.3413 13.6744 81.9732 12.6676 81.2371 11.8882C80.501 11.1088 79.5375 10.7191 78.3468 10.7191C77.0911 10.7191 76.0735 11.0871 75.2941 11.8233C74.5147 12.5594 74.125 13.512 74.125 14.6811V23.7093H70.1629V12.148C70.1629 11.2387 69.6975 10.784 68.7665 10.784C68.2469 10.784 67.7598 10.849 67.3051 10.9789V7.76382C68.0412 7.46071 68.8315 7.30916 69.6758 7.30916C71.5161 7.30916 72.7502 8.0128 73.378 9.42007C74.8286 8.0128 76.723 7.30916 79.0612 7.30916Z" fill="#4B418A"/>
<path d="M107.182 20.7215C107.637 20.7215 108.199 20.6025 108.871 20.3643V23.7093C107.94 24.034 107.095 24.1964 106.338 24.1964C104.454 24.1964 103.209 23.4928 102.603 22.0855C101.109 23.4928 99.2579 24.1964 97.0495 24.1964C94.5814 24.1964 92.5679 23.417 91.0091 21.8582C89.4503 20.2777 88.6709 18.2426 88.6709 15.7528C88.6709 13.263 89.4503 11.2387 91.0091 9.67987C92.5679 8.0994 94.5814 7.30916 97.0495 7.30916C98.8898 7.30916 100.481 7.90455 101.823 9.09531V0.326928H105.818V19.3576C105.818 20.2669 106.273 20.7215 107.182 20.7215ZM97.3093 20.9489C98.6733 20.9489 99.7666 20.4726 100.589 19.52C101.434 18.5673 101.856 17.3116 101.856 15.7528C101.856 14.194 101.434 12.9383 100.589 11.9856C99.7666 11.033 98.6733 10.5567 97.3093 10.5567C95.9021 10.5567 94.7654 11.033 93.8994 11.9856C93.055 12.9383 92.6329 14.194 92.6329 15.7528C92.6329 17.3116 93.055 18.5673 93.8994 19.52C94.7654 20.4726 95.9021 20.9489 97.3093 20.9489Z" fill="#4B418A"/>
<path d="M112.533 4.71112C111.84 4.71112 111.255 4.49462 110.779 4.06161C110.303 3.60695 110.065 3.0657 110.065 2.43784C110.065 1.80998 110.303 1.27954 110.779 0.846535C111.255 0.391879 111.84 0.164551 112.533 0.164551C113.204 0.164551 113.778 0.391879 114.254 0.846535C114.752 1.27954 115.001 1.80998 115.001 2.43784C115.001 3.0657 114.752 3.60695 114.254 4.06161C113.778 4.49462 113.204 4.71112 112.533 4.71112ZM110.552 23.7093V7.7963H114.514V23.7093H110.552Z" fill="#4B418A"/>
<path d="M34.1244 20.0374H46.4326V23.5447H30V0.811887H34.1244V20.0374Z" fill="#4B418A"/>
<path d="M65.6834 20.557C66.0081 20.557 66.5711 20.4379 67.3721 20.1998V23.5447C66.4845 23.8695 65.6401 24.0319 64.839 24.0319C62.9121 24.0319 61.5806 23.4148 60.8445 22.1808C59.4156 23.4148 57.6078 24.0319 55.4211 24.0319C53.2777 24.0319 51.5349 23.3499 50.1926 21.9859C48.8503 20.6219 48.1791 18.8466 48.1791 16.6599V7.63174H52.1411V16.4326C52.1411 17.6883 52.5092 18.7059 53.2453 19.4853C53.9814 20.2431 54.9448 20.6219 56.1356 20.6219C57.3913 20.6219 58.4089 20.2647 59.1883 19.5503C59.9677 18.8141 60.3574 17.8507 60.3574 16.6599V7.63174H64.3194V19.193C64.3194 20.1023 64.7741 20.557 65.6834 20.557Z" fill="#4B418A"/>
<path d="M79.4831 7.14461C81.6265 7.14461 83.3693 7.8266 84.7117 9.19057C86.054 10.5545 86.7251 12.3299 86.7251 14.5166V23.5447H82.7631V14.7439C82.7631 13.5098 82.3951 12.5031 81.659 11.7237C80.9229 10.9442 79.9594 10.5545 78.7687 10.5545C77.5129 10.5545 76.4954 10.9226 75.716 11.6587C74.9365 12.3948 74.5468 13.3474 74.5468 14.5166V23.5447H70.5848V11.9835C70.5848 11.0741 70.1193 10.6195 69.1884 10.6195C68.6688 10.6195 68.1816 10.6844 67.727 10.8143V7.59927C68.4631 7.29616 69.2533 7.14461 70.0977 7.14461C71.938 7.14461 73.172 7.84825 73.7999 9.25552C75.2505 7.84825 77.1449 7.14461 79.4831 7.14461Z" fill="#4B418A"/>
<path d="M107.604 20.557C108.058 20.557 108.621 20.4379 109.292 20.1998V23.5447C108.362 23.8695 107.517 24.0319 106.759 24.0319C104.876 24.0319 103.631 23.3282 103.025 21.921C101.531 23.3282 99.6797 24.0319 97.4714 24.0319C95.0033 24.0319 92.9898 23.2525 91.431 21.6936C89.8721 20.1132 89.0927 18.078 89.0927 15.5882C89.0927 13.0985 89.8721 11.0741 91.431 9.51532C92.9898 7.93485 95.0033 7.14461 97.4714 7.14461C99.3117 7.14461 100.903 7.74 102.245 8.93076V0.162377H106.24V19.193C106.24 20.1023 106.694 20.557 107.604 20.557ZM97.7312 20.7843C99.0952 20.7843 100.189 20.308 101.011 19.3554C101.856 18.4028 102.278 17.1471 102.278 15.5882C102.278 14.0294 101.856 12.7737 101.011 11.8211C100.189 10.8685 99.0952 10.3922 97.7312 10.3922C96.3239 10.3922 95.1873 10.8685 94.3213 11.8211C93.4769 12.7737 93.0547 14.0294 93.0547 15.5882C93.0547 17.1471 93.4769 18.4028 94.3213 19.3554C95.1873 20.308 96.3239 20.7843 97.7312 20.7843Z" fill="#4B418A"/>
<path d="M112.955 4.54657C112.262 4.54657 111.677 4.33007 111.201 3.89706C110.725 3.4424 110.486 2.90114 110.486 2.27329C110.486 1.64543 110.725 1.11499 111.201 0.681985C111.677 0.227328 112.262 0 112.955 0C113.626 0 114.199 0.227328 114.676 0.681985C115.174 1.11499 115.423 1.64543 115.423 2.27329C115.423 2.90114 115.174 3.4424 114.676 3.89706C114.199 4.33007 113.626 4.54657 112.955 4.54657ZM110.974 23.5447V7.63174H114.936V23.5447H110.974Z" fill="#4B418A"/>
<rect y="3.20508" width="9.97763" height="20.9586" rx="0.668892" fill="#4B418A"/>
<rect x="11.1484" y="14.186" width="9.81041" height="9.97763" rx="0.668892" fill="#877DC9"/>
<rect x="16.0742" y="3.20508" width="6.9663" height="6.9663" rx="0.668892" transform="rotate(45 16.0742 3.20508)" fill="#FCAE30"/>
</svg>
