<?xml version="1.0" standalone="no"?>
<!DOCTYPE svg PUBLIC "-//W3C//DTD SVG 20010904//EN"
 "http://www.w3.org/TR/2001/REC-SVG-20010904/DTD/svg10.dtd">
<svg version="1.0" xmlns="http://www.w3.org/2000/svg"
 width="377.000000pt" height="377.000000pt" viewBox="0 0 377.000000 377.000000"
 preserveAspectRatio="xMidYMid meet">
<metadata>
Created by potrace 1.14, written by Peter Selinger 2001-2017
</metadata>
<g transform="translate(0.000000,377.000000) scale(0.100000,-0.100000)"
fill="#000000" stroke="none">
<path d="M42 3736 l-37 -34 -3 -1797 c-2 -1623 -1 -1800 14 -1830 32 -68 -5
-65 877 -65 525 0 804 4 823 10 16 6 38 23 49 38 20 27 20 45 23 1820 2 1509
0 1797 -12 1825 -29 70 8 67 -890 67 l-806 0 -38 -34z"/>
<path d="M2835 3709 c-11 -6 -190 -181 -398 -388 -396 -395 -399 -399 -382
-468 7 -31 731 -765 775 -787 14 -7 34 -12 45 -11 11 1 30 2 42 3 22 2 767
736 789 778 6 12 10 41 8 65 -4 43 -13 53 -377 417 -204 205 -384 380 -399
388 -32 17 -75 18 -103 3z"/>
<path d="M2063 1784 c-65 -33 -63 2 -63 -879 0 -884 -3 -847 65 -879 29 -14
124 -16 815 -16 691 0 786 2 815 16 68 32 65 -5 65 879 0 717 -2 800 -16 831
-32 66 -1 64 -868 64 -689 0 -785 -2 -813 -16z"/>
</g>
</svg>
